<?xml version="1.0" encoding="UTF-8" standalone="no" ?>
<!DOCTYPE svg PUBLIC "-//W3C//DTD SVG 1.1//EN" "http://www.w3.org/Graphics/SVG/1.1/DTD/svg11.dtd">
<svg xmlns="http://www.w3.org/2000/svg" xmlns:xlink="http://www.w3.org/1999/xlink" version="1.1" width="50" height="50" viewBox="0 0 1080 1080" xml:space="preserve">
<desc>Created with Fabric.js 5.2.4</desc>
<defs>
</defs>
<g transform="matrix(1 0 0 1 540 540)" id="deb3c425-28f6-4855-bd3d-4390d07a5423"  >
<rect style="stroke: none; stroke-width: 1; stroke-dasharray: none; stroke-linecap: butt; stroke-dashoffset: 0; stroke-linejoin: miter; stroke-miterlimit: 4; fill: rgb(0,0,0); fill-rule: nonzero; opacity: 1;" vector-effect="non-scaling-stroke"  x="-540" y="-540" rx="0" ry="0" width="1080" height="1080" />
</g>
<g transform="matrix(1 0 0 1 540 540)" id="df1600ea-2900-450e-8dde-f41e56cf1a45"  >
</g>
<g transform="matrix(3.78 0 0 3.69 879.66 540)"  >
<g style=""   >
		<g transform="matrix(3.03 0 0 3.03 -80.4 0)" id="SvgjsG1882"  >
<path style="stroke: rgb(255,255,255); stroke-width: 0.8 ; stroke-dasharray: none; stroke-linecap: butt; stroke-dashoffset: 0; stroke-linejoin: miter; stroke-miterlimit: 4; fill: rgb(255,255,255); fill-rule: evenodd; opacity: 1;" vector-effect="non-scaling-stroke"  transform=" translate(-49.04, -51.18)" d="M 50.572 94.308 L 48.739000000000004 94.308 C 48.155 91.507 47.667 88.75200000000001 46.99 86.04400000000001 C 46.367000000000004 83.55400000000002 45.313 81.21900000000001 43.742000000000004 79.156 C 41.25300000000001 75.887 38.013000000000005 74.744 33.941 75.411 C 31.733000000000004 75.772 29.421000000000003 75.901 27.198 75.686 C 24.048000000000002 75.381 22.739 73.33000000000001 23.278 70.209 C 23.320999999999998 69.961 23.352999999999998 69.70400000000001 23.442 69.47200000000001 C 24.245 67.37800000000001 23.715 65.59500000000001 22.185 64.05000000000001 C 21.43 63.28700000000001 21.645999999999997 62.44600000000001 22.026 61.65200000000001 C 22.368 60.93500000000001 22.38 60.37800000000001 21.711 59.86500000000001 C 20.729 59.11300000000001 20.695999999999998 58.153000000000006 21.072 57.05500000000001 C 21.493 55.82600000000001 21.32 55.55800000000001 20.070999999999998 55.218 C 19.377 55.029 18.662999999999997 54.906000000000006 17.979999999999997 54.684000000000005 C 16.913999999999998 54.33800000000001 16.511999999999997 53.67100000000001 16.887999999999998 52.607000000000006 C 17.182 51.77400000000001 17.604999999999997 50.93800000000001 18.156 50.25200000000001 C 22.579 44.76400000000001 24.401 38.45700000000001 24.349999999999998 31.48100000000001 C 24.322 27.63800000000001 24.991 23.884000000000007 26.477999999999998 20.311000000000007 C 28.985999999999997 14.287000000000006 33.400999999999996 10.475000000000007 39.808 9.179000000000007 C 47.826 7.555000000000007 55.839 7.604000000000007 63.757999999999996 9.830000000000007 C 68.304 11.108000000000008 72.383 13.254000000000007 75.61 16.797000000000008 C 79.627 21.20500000000001 81.129 26.558000000000007 81.319 32.364000000000004 C 81.565 39.926 79.476 46.868 75.552 53.283 C 73.411 56.781 71.94600000000001 60.557 70.79700000000001 64.47 C 70.07100000000001 66.942 68.68400000000001 68.943 66.64000000000001 70.49 C 64.38900000000001 72.193 61.83400000000002 72.536 59.15400000000002 71.97 C 57.07700000000002 71.532 55.56200000000002 70.205 54.77300000000002 68.288 C 53.960000000000015 66.31 53.432000000000016 64.217 52.73300000000002 62.031 C 52.59000000000002 62.019999999999996 52.11400000000002 62.121 51.832000000000015 61.933 C 51.41300000000002 61.653 50.936000000000014 61.21 50.83900000000001 60.76 C 50.695000000000014 60.097 51.14700000000001 59.562999999999995 51.884000000000015 59.542 C 53.323000000000015 59.502 54.765000000000015 59.510000000000005 56.204000000000015 59.534 C 56.93100000000001 59.549 57.33300000000001 59.992 57.356000000000016 60.705 C 57.381000000000014 61.476 56.96500000000002 61.909 56.192000000000014 61.976 C 55.838000000000015 62.006 55.48200000000001 62.013999999999996 55.13500000000001 62.031 C 54.725000000000016 65.762 57.33400000000001 69.559 60.573000000000015 70.01 C 63.95800000000001 70.482 66.62100000000001 69.156 68.17800000000001 66.12100000000001 C 68.76700000000001 64.974 69.30000000000001 63.77300000000001 69.65700000000001 62.53900000000001 C 70.79100000000001 58.63900000000001 72.62200000000001 55.06800000000001 74.53600000000002 51.51400000000001 C 77.70900000000002 45.619000000000014 79.44400000000002 39.32800000000001 79.41800000000002 32.59200000000001 C 79.396 26.262 76.927 21.099 72.116 17 C 68.239 13.697 63.835 11.611 58.788 10.809999999999999 C 53.30799999999999 9.94 47.837999999999994 9.684 42.349999999999994 10.671 C 33.788999999999994 12.209999999999999 28.639999999999993 17.259 27.145999999999994 25.841 C 26.654999999999994 28.665 26.559999999999995 31.561 26.328999999999994 34.428 C 25.893999999999995 39.824999999999996 24.107999999999993 44.733999999999995 21.070999999999994 49.202 C 20.584999999999994 49.915 20.086999999999996 50.623999999999995 19.644999999999996 51.364999999999995 C 19.004999999999995 52.434999999999995 19.194999999999997 52.956999999999994 20.361999999999995 53.44799999999999 C 20.857999999999993 53.657999999999994 21.377999999999993 53.812999999999995 21.871999999999996 54.028999999999996 C 22.987999999999996 54.516999999999996 23.219999999999995 54.989 22.941999999999997 56.151999999999994 C 22.841999999999995 56.57099999999999 22.705999999999996 56.98199999999999 22.603999999999996 57.400999999999996 C 22.424999999999997 58.132999999999996 22.564999999999994 58.751 23.248999999999995 59.17999999999999 C 24.160999999999994 59.751999999999995 24.342999999999996 60.54699999999999 23.926999999999996 61.510999999999996 C 23.616999999999997 62.23499999999999 23.684999999999995 62.858 24.232999999999997 63.492999999999995 C 25.828999999999997 65.348 25.717999999999996 67.527 25.301 69.743 C 25.241 70.06099999999999 25.165999999999997 70.377 25.113999999999997 70.696 C 24.836999999999996 72.386 25.471999999999998 73.576 27.165999999999997 73.742 C 29.073999999999998 73.929 31.022999999999996 73.724 32.952999999999996 73.661 C 34.601 73.607 36.272 73.303 37.891999999999996 73.48 C 41.562999999999995 73.879 44.318999999999996 75.842 46.18299999999999 79.025 C 48.29099999999999 82.622 49.24399999999999 86.607 50.010999999999996 90.64800000000001 C 50.231 91.812 50.373 92.99 50.572 94.308 M 67.597 22.376 L 48.5 27.598 L 48.5 32.722 L 48.5 34.759 L 48.5 50.919 C 47.507 50.739999999999995 46.361 50.82 45.215 51.239999999999995 C 42.616 52.19499999999999 41.054 54.449999999999996 41.724000000000004 56.275999999999996 C 42.395 58.105 45.044000000000004 58.81099999999999 47.645 57.858 C 49.7 57.102999999999994 51.086000000000006 55.535 51.252 54.007999999999996 L 51.285000000000004 54.007999999999996 L 51.285000000000004 33.998 L 64.762 30.311999999999998 L 64.762 46.742 C 63.772 46.562999999999995 62.625 46.643 61.479 47.062999999999995 C 58.878 48.017999999999994 57.317 50.272 57.987 52.099999999999994 C 58.658 53.925999999999995 61.308 54.63399999999999 63.907000000000004 53.681 C 65.964 52.925999999999995 67.351 51.358 67.51700000000001 49.830999999999996 L 67.54800000000002 49.830999999999996 L 67.54800000000002 29.550999999999995 L 67.59700000000002 29.536999999999995 L 67.59700000000002 22.376 z" stroke-linecap="round" />
</g>
		<g transform="matrix(4.19 0 0 4.19 90.02 -0.21)" id="SvgjsG1883"  >
<path style="stroke: none; stroke-width: 1; stroke-dasharray: none; stroke-linecap: butt; stroke-dashoffset: 0; stroke-linejoin: miter; stroke-miterlimit: 4; fill: rgb(255,255,255); fill-rule: nonzero; opacity: 1;" vector-effect="non-scaling-stroke"  transform=" translate(-7.54, -10.66)" d="M 6.84 20 L 6.9399999999999995 3.5 L 5.379999999999999 20 L 3.719999999999999 20 L 2.159999999999999 3.5 L 2.259999999999999 20 L 0.599999999999999 20 L 0.599999999999999 1.3200000000000003 L 3.719999999999999 1.3200000000000003 L 4.539999999999999 13.040000000000001 L 5.379999999999999 1.3200000000000003 L 8.5 1.3200000000000003 L 8.5 20 L 6.84 20 z M 14.48 1.3200000000000003 L 14.48 17.7 Q 14.48 20 12.24 20 L 11.94 20 Q 10.74 20 10.219999999999999 19.39 Q 9.699999999999998 18.78 9.7 17.7 L 9.7 1.3200000000000003 L 11.36 1.3200000000000003 L 11.36 17.48 Q 11.36 17.88 11.51 18.11 Q 11.66 18.34 12.08 18.34 Q 12.5 18.34 12.66 18.11 Q 12.82 17.88 12.82 17.48 L 12.82 1.3200000000000003 L 14.48 1.3200000000000003 z" stroke-linecap="round" />
</g>
		<g transform="matrix(4.13 0 0 4.13 152.21 -0.21)" id="SvgjsG1884"  >
<path style="stroke: none; stroke-width: 1; stroke-dasharray: none; stroke-linecap: butt; stroke-dashoffset: 0; stroke-linejoin: miter; stroke-miterlimit: 4; fill: rgb(255,255,255); fill-rule: nonzero; opacity: 1;" vector-effect="non-scaling-stroke"  transform=" translate(-7.1, -10.65)" d="M 5.14 14.6 L 5.14 18.04 C 5.14 19.259999999999998 4.64 20.119999999999997 3.0999999999999996 20.119999999999997 L 2.8199999999999994 20.119999999999997 C 1.3199999999999994 20.119999999999997 0.7999999999999994 19.259999999999998 0.7999999999999994 18.04 L 0.7999999999999994 13.16 L 1.5599999999999994 13.16 L 1.5599999999999994 17.72 C 1.5599999999999994 18.599999999999998 1.7599999999999993 19.36 2.9799999999999995 19.36 C 4.18 19.36 4.379999999999999 18.599999999999998 4.379999999999999 17.72 L 4.379999999999999 14.399999999999999 C 4.379999999999999 13.099999999999998 3.499999999999999 11.999999999999998 2.7399999999999993 10.899999999999999 C 1.4599999999999993 9.04 0.7999999999999994 8.319999999999999 0.7999999999999994 6.379999999999999 L 0.7999999999999994 3.259999999999999 C 0.7999999999999994 2.039999999999999 1.2999999999999994 1.1799999999999988 2.8199999999999994 1.1799999999999988 L 3.0999999999999996 1.1799999999999988 C 4.619999999999999 1.1799999999999988 5.14 2.0399999999999987 5.14 3.259999999999999 L 5.14 8.18 L 4.38 8.18 L 4.38 3.58 C 4.38 2.7 4.16 1.9400000000000002 2.96 1.9400000000000002 C 1.7599999999999998 1.9400000000000002 1.56 2.7 1.56 3.58 L 1.56 6.58 C 1.54 7.84 2.1 8.68 3.1 10.120000000000001 C 4.46 12.080000000000002 5.140000000000001 12.8 5.140000000000001 14.600000000000001 z M 7.48 20 L 6.74 20 L 6.74 1.3200000000000003 L 7.48 1.3200000000000003 L 7.48 20 z M 12.66 13.1 L 13.4 13.1 L 13.4 18.04 C 13.4 19.259999999999998 12.92 20.119999999999997 11.38 20.119999999999997 L 11.100000000000001 20.119999999999997 C 9.600000000000001 20.119999999999997 9.080000000000002 19.259999999999998 9.080000000000002 17.839999999999996 L 9.080000000000002 3.059999999999997 C 9.080000000000002 2.039999999999997 9.580000000000002 1.179999999999997 11.100000000000001 1.179999999999997 L 11.38 1.179999999999997 C 12.9 1.179999999999997 13.4 2.039999999999997 13.4 3.259999999999997 L 13.4 8.179999999999996 L 12.66 8.179999999999996 L 12.66 3.5799999999999965 C 12.66 2.6999999999999966 12.44 1.9399999999999966 11.24 1.9399999999999966 C 10.040000000000001 1.9399999999999966 9.84 2.6799999999999966 9.84 3.5799999999999965 L 9.84 17.72 C 9.84 18.599999999999998 10.04 19.36 11.24 19.36 C 12.46 19.36 12.66 18.599999999999998 12.66 17.72 L 12.66 13.099999999999998 z" stroke-linecap="round" />
</g>
</g>
</g>
</svg>